<svg width="30" height="25" viewBox="0 0 30 25" fill="none" xmlns="http://www.w3.org/2000/svg">
<path d="M24.9971 2.07458C23.1223 1.10541 21.1176 0.401062 19.0218 0C18.7644 0.514148 18.4637 1.20569 18.2564 1.7558C16.0285 1.38562 13.8211 1.38562 11.6342 1.7558C11.427 1.20569 11.1194 0.514148 10.8597 0C8.76168 0.401062 6.75474 1.108 4.87994 2.07971C1.09843 8.39331 0.0733287 14.5501 0.585882 20.6195C3.09397 22.6889 5.52462 23.946 7.91424 24.7686C8.50425 23.8714 9.03046 22.9177 9.48378 21.9125C8.62042 21.5501 7.79351 21.1028 7.01217 20.5835C7.21946 20.4138 7.42221 20.2364 7.6181 20.0539C12.3837 22.5166 17.5616 22.5166 22.2703 20.0539C22.4685 20.2364 22.6712 20.4138 22.8762 20.5835C22.0926 21.1053 21.2634 21.5526 20.4 21.9151C20.8534 22.9177 21.3773 23.874 21.9696 24.7711C24.3615 23.9485 26.7944 22.6915 29.3025 20.6195C29.9039 13.5835 28.2751 7.48328 24.9971 2.07458ZM10.133 16.8869C8.70245 16.8869 7.52925 15.4113 7.52925 13.6144C7.52925 11.8175 8.67739 10.3393 10.133 10.3393C11.5887 10.3393 12.7619 11.8149 12.7368 13.6144C12.7391 15.4113 11.5887 16.8869 10.133 16.8869ZM19.7554 16.8869C18.3248 16.8869 17.1516 15.4113 17.1516 13.6144C17.1516 11.8175 18.2997 10.3393 19.7554 10.3393C21.211 10.3393 22.3842 11.8149 22.3591 13.6144C22.3591 15.4113 21.211 16.8869 19.7554 16.8869Z" fill="url(#paint0_linear_612_2822)"/>
<defs>
<linearGradient id="paint0_linear_612_2822" x1="5.49951" y1="-7.38274e-07" x2="26.1139" y2="23.3406" gradientUnits="userSpaceOnUse">
<stop stop-color="#008080"/>
<stop offset="1" stop-color="#008080" stop-opacity="0.5"/>
</linearGradient>
</defs>
</svg>
