<svg width="1640" height="601" viewBox="0 0 1640 601" fill="none" xmlns="http://www.w3.org/2000/svg">
<g filter="url(#filter0_i_1_1305)">
<g filter="url(#filter1_di_1_1305)">
<path d="M465.47 460.039H420.852C417.065 460.039 413.586 458.02 411.702 454.752L262.182 195.774C260.298 192.506 260.298 188.469 262.182 185.201L284.481 146.581C288.556 139.526 298.726 139.526 302.801 146.581L474.62 444.179C478.695 451.234 473.601 460.039 465.47 460.039Z" fill="url(#paint0_linear_1_1305)"/>
<path d="M416.501 451.986L416.499 451.982L266.981 193.007C266.981 193.007 266.98 193.006 266.98 193.006C266.084 191.451 266.085 189.523 266.981 187.969C266.981 187.968 266.981 187.968 266.981 187.968L289.278 149.352C289.278 149.352 289.278 149.352 289.278 149.351C291.222 145.989 296.061 145.989 298.004 149.352L469.823 446.949L469.823 446.95C471.763 450.309 469.34 454.499 465.47 454.499H420.852C419.049 454.499 417.398 453.541 416.501 451.986Z" stroke="url(#paint1_linear_1_1305)" stroke-width="11.0791" stroke-linejoin="round"/>
</g>
<g filter="url(#filter2_di_1_1305)">
<path d="M375.426 458.961H123.33C115.199 458.961 110.104 450.157 114.18 443.102L240.228 224.781C244.303 217.726 254.472 217.726 258.548 224.781L278.828 259.922C280.712 263.19 280.712 267.227 278.828 270.495L207.625 393.602C203.549 400.657 208.644 409.461 216.775 409.461H359.048C362.816 409.461 366.314 411.479 368.198 414.747L384.577 443.102C388.652 450.157 383.558 458.961 375.426 458.961Z" fill="url(#paint2_linear_1_1305)"/>
<path d="M118.976 445.873L118.977 445.872L245.025 227.552C246.967 224.189 251.808 224.189 253.751 227.552L274.029 262.689C274.926 264.244 274.926 266.173 274.029 267.728L202.83 390.828L202.828 390.831C196.617 401.582 204.383 415.001 216.775 415.001H359.048C360.837 415.001 362.505 415.963 363.399 417.514L363.401 417.518L379.78 445.873L384.577 443.102L379.78 445.873C381.72 449.231 379.297 453.422 375.426 453.422H123.33C119.46 453.422 117.036 449.231 118.976 445.873Z" stroke="url(#paint3_linear_1_1305)" stroke-width="11.0791" stroke-linejoin="round"/>
</g>
<g filter="url(#filter3_di_1_1305)">
<path d="M336.845 392.159H247.533C239.382 392.159 234.307 383.336 238.383 376.3L283.077 299.022C287.153 291.986 297.322 291.986 301.378 299.022L345.996 376.3C350.071 383.355 344.977 392.159 336.845 392.159Z" fill="url(#paint4_linear_1_1305)"/>
<path d="M243.176 379.077L243.178 379.074L287.871 301.798C289.817 298.438 294.659 298.459 296.579 301.789L296.581 301.792L341.198 379.07L341.199 379.071C343.139 382.43 340.716 386.62 336.845 386.62H247.533C243.651 386.62 241.24 382.42 243.176 379.077Z" stroke="url(#paint5_linear_1_1305)" stroke-width="11.0791" stroke-linejoin="round"/>
</g>
<g filter="url(#filter4_di_1_1305)">
<path d="M486.32 247.585L442.049 325.152C438.012 332.226 427.823 332.265 423.729 325.229L378.784 248.105C374.69 241.069 379.726 232.245 387.877 232.207L477.112 231.784C485.244 231.745 490.376 240.53 486.339 247.605L486.32 247.585Z" fill="url(#paint6_linear_1_1305)"/>
<path d="M477.138 237.323C480.875 237.306 483.29 241.213 481.705 244.522C481.636 244.625 481.571 244.731 481.509 244.84L437.237 322.406L437.237 322.406C435.317 325.771 430.466 325.792 428.516 322.443L428.515 322.44L383.572 245.318C383.572 245.318 383.572 245.318 383.572 245.317C381.619 241.961 384.018 237.765 387.903 237.746L387.903 237.746L477.138 237.323C477.138 237.323 477.138 237.323 477.138 237.323Z" stroke="url(#paint7_linear_1_1305)" stroke-width="11.0791" stroke-linejoin="round"/>
</g>
</g>
<g filter="url(#filter5_di_1_1305)">
<path d="M1573.1 228.664C1592.44 228.664 1608.28 244.504 1608.28 263.841V266.721C1608.28 268.367 1607.05 269.395 1605.4 269.395H1591.82C1590.18 269.395 1588.94 268.367 1588.94 266.721V263.841C1588.94 254.995 1581.95 247.795 1573.1 247.795H1523.53C1514.68 247.795 1507.48 254.995 1507.48 263.841V310.538L1516.53 319.59C1518.38 321.235 1519.62 324.115 1519.62 326.79V352.71L1523.53 353.533H1573.1C1581.95 353.533 1588.94 346.333 1588.94 337.487V334.607C1588.94 332.961 1590.18 331.933 1591.82 331.933H1605.4C1607.05 331.933 1608.28 332.961 1608.28 334.607V337.487C1608.28 356.824 1592.44 372.664 1573.1 372.664H1523.53C1504.19 372.664 1488.35 356.824 1488.35 337.487V263.841C1488.35 244.298 1504.19 228.664 1523.53 228.664H1573.1Z" fill="#00FF94"/>
</g>
<g filter="url(#filter6_di_1_1305)">
<path d="M1434.65 228.664C1453.99 228.664 1469.83 244.504 1469.83 263.841V266.721C1469.83 268.367 1468.59 269.395 1466.95 269.395H1453.37C1451.72 269.395 1450.49 268.367 1450.49 266.721V263.841C1450.49 254.995 1443.5 247.795 1434.65 247.795H1385.07C1376.23 247.795 1369.03 254.995 1369.03 263.841V279.887C1369.03 288.733 1376.23 295.727 1385.07 295.727H1434.65C1453.99 295.933 1469.83 311.567 1469.83 330.904V337.487C1469.83 356.824 1453.99 372.664 1434.65 372.664H1385.07C1365.74 372.664 1349.9 356.824 1349.9 337.487V334.607C1349.9 332.961 1351.13 331.727 1352.78 331.727H1366.35C1368 331.727 1369.03 332.961 1369.03 334.607V337.487C1369.03 346.333 1376.23 353.327 1385.07 353.327H1391.66L1400.71 344.275C1402.56 342.63 1405.44 341.395 1407.91 341.395H1449.87L1450.49 337.487V331.11C1450.49 322.264 1443.5 315.064 1434.65 315.064H1385.07C1365.74 315.064 1349.9 299.224 1349.9 279.887V263.841C1349.9 244.504 1365.74 228.664 1385.07 228.664H1434.65Z" fill="#00FF94"/>
</g>
<g filter="url(#filter7_di_1_1305)">
<path d="M1296.32 228.664C1315.65 228.664 1331.49 244.504 1331.49 263.841V274.127C1331.49 284.001 1327.17 293.258 1319.97 300.047C1327.17 306.63 1331.49 316.093 1331.49 325.761V337.487C1331.49 356.824 1315.65 372.664 1296.32 372.664H1221.85C1215.68 372.664 1211.56 368.55 1211.56 362.378V238.95C1211.56 232.778 1215.68 228.664 1221.85 228.664H1296.32ZM1312.16 274.127V263.841C1312.16 254.995 1305.16 247.795 1296.32 247.795H1230.69V289.967H1296.32C1305.16 289.967 1312.16 282.973 1312.16 274.127ZM1312.16 337.487V325.761C1312.16 317.121 1305.16 310.127 1296.52 309.921L1230.69 309.304V310.538L1242.83 322.47V353.533H1296.32C1305.16 353.533 1312.16 346.333 1312.16 337.487Z" fill="#00FF94"/>
</g>
<g filter="url(#filter8_di_1_1305)">
<path d="M1192.83 266.721C1192.83 268.367 1191.6 269.395 1189.95 269.395H1176.38C1174.73 269.395 1173.5 268.367 1173.5 266.721V263.841C1173.5 254.995 1166.5 247.795 1157.66 247.795H1108.08C1099.23 247.795 1092.03 254.995 1092.03 263.841V291.407H1139.97C1145.73 291.407 1149.63 295.11 1149.63 300.87C1149.63 306.63 1145.73 310.538 1139.97 310.538H1092.03L1101.09 319.59C1102.94 321.235 1104.17 324.115 1104.17 326.79V352.71L1108.08 353.533H1157.66C1166.5 353.533 1173.5 346.333 1173.5 337.487V334.607C1173.5 332.961 1174.73 331.933 1176.38 331.933H1189.95C1191.6 331.933 1192.83 332.961 1192.83 334.607V337.487C1192.83 356.824 1176.99 372.664 1157.66 372.664H1108.08C1088.74 372.664 1072.9 356.824 1072.9 337.487V263.841C1072.9 244.504 1088.74 228.664 1108.08 228.664H1157.66C1176.99 228.664 1192.83 244.504 1192.83 263.841V266.721Z" fill="#00FF94"/>
</g>
<g filter="url(#filter9_di_1_1305)">
<path d="M1019.2 228.664C1038.54 228.664 1054.38 244.504 1054.38 263.841V266.721C1054.38 268.367 1053.15 269.395 1051.5 269.395H1037.92C1036.28 269.395 1035.04 268.367 1035.04 266.721V263.841C1035.04 254.995 1028.05 247.795 1019.2 247.795H969.626C960.78 247.795 953.58 254.995 953.58 263.841V279.887C953.58 288.733 960.78 295.727 969.626 295.727H1019.2C1038.54 295.933 1054.38 311.567 1054.38 330.904V337.487C1054.38 356.824 1038.54 372.664 1019.2 372.664H969.626C950.289 372.664 934.449 356.824 934.449 337.487V334.607C934.449 332.961 935.683 331.727 937.329 331.727H950.906C952.552 331.727 953.58 332.961 953.58 334.607V337.487C953.58 346.333 960.78 353.327 969.626 353.327H976.209L985.26 344.275C987.112 342.63 989.992 341.395 992.46 341.395H1034.43L1035.04 337.487V331.11C1035.04 322.264 1028.05 315.064 1019.2 315.064H969.626C950.289 315.064 934.449 299.224 934.449 279.887V263.841C934.449 244.504 950.289 228.664 969.626 228.664H1019.2Z" fill="#00FF94"/>
</g>
<g filter="url(#filter10_di_1_1305)">
<path d="M896.387 228.664C902.147 228.664 905.85 232.573 905.85 238.333V310.538L915.107 319.59C916.753 321.235 917.987 324.115 917.987 326.79V362.378C917.987 368.55 913.873 372.664 907.907 372.664H897.004C890.833 372.664 886.718 368.55 886.718 362.378V238.333C886.718 232.573 890.627 228.664 896.387 228.664Z" fill="#00FF94"/>
</g>
<g filter="url(#filter11_di_1_1305)">
<path d="M827.834 228.664C847.171 228.664 863.011 244.298 863.011 263.841V362.995C863.011 368.755 859.102 372.664 853.342 372.664C847.582 372.664 843.674 368.755 843.674 362.995V310.333H762.211L771.468 319.59C773.114 321.235 774.348 324.115 774.348 326.79V362.378C774.348 368.55 770.234 372.664 764.062 372.664H753.365C747.194 372.664 743.08 368.55 743.08 362.378V238.95C743.08 232.778 747.194 228.664 753.365 228.664H827.834ZM843.674 290.995V263.841C843.674 254.995 836.68 247.795 827.834 247.795H762.211V290.995H843.674Z" fill="#00FF94"/>
</g>
<g filter="url(#filter12_di_1_1305)">
<path d="M684.999 228.664C704.337 228.664 720.177 244.298 720.177 263.841V275.155C720.177 284.824 716.062 294.081 708.862 300.664C716.062 307.247 720.177 316.504 720.177 326.173V362.995C720.177 368.755 716.268 372.664 710.508 372.664C704.748 372.664 700.839 368.755 700.839 362.995V326.173C700.839 317.327 693.845 310.333 684.999 310.333L619.377 310.538L628.428 319.59C630.279 321.235 631.514 324.115 631.514 326.79V362.378C631.514 368.55 627.399 372.664 621.228 372.664H610.531C604.359 372.664 600.245 368.55 600.245 362.378V238.95C600.245 232.778 604.359 228.664 610.531 228.664H684.999ZM700.839 275.155V263.841C700.839 254.995 693.845 247.795 684.999 247.795H619.377V290.995H684.999C693.845 290.995 700.839 284.001 700.839 275.155Z" fill="#00FF94"/>
</g>
<defs>
<filter id="filter0_i_1_1305" x="112.745" y="141.29" width="375.002" height="328.37" filterUnits="userSpaceOnUse" color-interpolation-filters="sRGB">
<feFlood flood-opacity="0" result="BackgroundImageFix"/>
<feBlend mode="normal" in="SourceGraphic" in2="BackgroundImageFix" result="shape"/>
<feColorMatrix in="SourceAlpha" type="matrix" values="0 0 0 0 0 0 0 0 0 0 0 0 0 0 0 0 0 0 127 0" result="hardAlpha"/>
<feOffset dy="19.2439"/>
<feGaussianBlur stdDeviation="4.81098"/>
<feComposite in2="hardAlpha" operator="arithmetic" k2="-1" k3="1"/>
<feColorMatrix type="matrix" values="0 0 0 0 1 0 0 0 0 1 0 0 0 0 1 0 0 0 1 0"/>
<feBlend mode="normal" in2="shape" result="effect1_innerShadow_1_1305"/>
</filter>
<filter id="filter1_di_1_1305" x="218.668" y="99.1895" width="303.918" height="407.381" filterUnits="userSpaceOnUse" color-interpolation-filters="sRGB">
<feFlood flood-opacity="0" result="BackgroundImageFix"/>
<feColorMatrix in="SourceAlpha" type="matrix" values="0 0 0 0 0 0 0 0 0 0 0 0 0 0 0 0 0 0 127 0" result="hardAlpha"/>
<feOffset dx="2.21582" dy="2.21582"/>
<feGaussianBlur stdDeviation="22.1582"/>
<feComposite in2="hardAlpha" operator="out"/>
<feColorMatrix type="matrix" values="0 0 0 0 0.118594 0 0 0 0 0.8625 0 0 0 0 0.505425 0 0 0 0.5 0"/>
<feBlend mode="lighten" in2="BackgroundImageFix" result="effect1_dropShadow_1_1305"/>
<feBlend mode="normal" in="SourceGraphic" in2="effect1_dropShadow_1_1305" result="shape"/>
<feColorMatrix in="SourceAlpha" type="matrix" values="0 0 0 0 0 0 0 0 0 0 0 0 0 0 0 0 0 0 127 0" result="hardAlpha"/>
<feOffset dx="2.21582" dy="2.21582"/>
<feGaussianBlur stdDeviation="1.10791"/>
<feComposite in2="hardAlpha" operator="arithmetic" k2="-1" k3="1"/>
<feColorMatrix type="matrix" values="0 0 0 0 1 0 0 0 0 1 0 0 0 0 1 0 0 0 1 0"/>
<feBlend mode="overlay" in2="shape" result="effect2_innerShadow_1_1305"/>
</filter>
<filter id="filter2_di_1_1305" x="70.6445" y="177.39" width="361.899" height="328.104" filterUnits="userSpaceOnUse" color-interpolation-filters="sRGB">
<feFlood flood-opacity="0" result="BackgroundImageFix"/>
<feColorMatrix in="SourceAlpha" type="matrix" values="0 0 0 0 0 0 0 0 0 0 0 0 0 0 0 0 0 0 127 0" result="hardAlpha"/>
<feOffset dx="2.21582" dy="2.21582"/>
<feGaussianBlur stdDeviation="22.1582"/>
<feComposite in2="hardAlpha" operator="out"/>
<feColorMatrix type="matrix" values="0 0 0 0 0.118594 0 0 0 0 0.8625 0 0 0 0 0.505425 0 0 0 0.5 0"/>
<feBlend mode="lighten" in2="BackgroundImageFix" result="effect1_dropShadow_1_1305"/>
<feBlend mode="normal" in="SourceGraphic" in2="effect1_dropShadow_1_1305" result="shape"/>
<feColorMatrix in="SourceAlpha" type="matrix" values="0 0 0 0 0 0 0 0 0 0 0 0 0 0 0 0 0 0 127 0" result="hardAlpha"/>
<feOffset dx="2.21582" dy="2.21582"/>
<feGaussianBlur stdDeviation="1.10791"/>
<feComposite in2="hardAlpha" operator="arithmetic" k2="-1" k3="1"/>
<feColorMatrix type="matrix" values="0 0 0 0 1 0 0 0 0 1 0 0 0 0 1 0 0 0 1 0"/>
<feBlend mode="overlay" in2="shape" result="effect2_innerShadow_1_1305"/>
</filter>
<filter id="filter3_di_1_1305" x="194.845" y="251.645" width="199.117" height="187.047" filterUnits="userSpaceOnUse" color-interpolation-filters="sRGB">
<feFlood flood-opacity="0" result="BackgroundImageFix"/>
<feColorMatrix in="SourceAlpha" type="matrix" values="0 0 0 0 0 0 0 0 0 0 0 0 0 0 0 0 0 0 127 0" result="hardAlpha"/>
<feOffset dx="2.21582" dy="2.21582"/>
<feGaussianBlur stdDeviation="22.1582"/>
<feComposite in2="hardAlpha" operator="out"/>
<feColorMatrix type="matrix" values="0 0 0 0 0.118594 0 0 0 0 0.8625 0 0 0 0 0.505425 0 0 0 0.5 0"/>
<feBlend mode="lighten" in2="BackgroundImageFix" result="effect1_dropShadow_1_1305"/>
<feBlend mode="normal" in="SourceGraphic" in2="effect1_dropShadow_1_1305" result="shape"/>
<feColorMatrix in="SourceAlpha" type="matrix" values="0 0 0 0 0 0 0 0 0 0 0 0 0 0 0 0 0 0 127 0" result="hardAlpha"/>
<feOffset dx="2.21582" dy="2.21582"/>
<feGaussianBlur stdDeviation="1.10791"/>
<feComposite in2="hardAlpha" operator="arithmetic" k2="-1" k3="1"/>
<feColorMatrix type="matrix" values="0 0 0 0 1 0 0 0 0 1 0 0 0 0 1 0 0 0 1 0"/>
<feBlend mode="overlay" in2="shape" result="effect2_innerShadow_1_1305"/>
</filter>
<filter id="filter4_di_1_1305" x="335.23" y="189.683" width="199.049" height="187.331" filterUnits="userSpaceOnUse" color-interpolation-filters="sRGB">
<feFlood flood-opacity="0" result="BackgroundImageFix"/>
<feColorMatrix in="SourceAlpha" type="matrix" values="0 0 0 0 0 0 0 0 0 0 0 0 0 0 0 0 0 0 127 0" result="hardAlpha"/>
<feOffset dx="2.21582" dy="2.21582"/>
<feGaussianBlur stdDeviation="22.1582"/>
<feComposite in2="hardAlpha" operator="out"/>
<feColorMatrix type="matrix" values="0 0 0 0 0.118594 0 0 0 0 0.8625 0 0 0 0 0.505425 0 0 0 0.5 0"/>
<feBlend mode="lighten" in2="BackgroundImageFix" result="effect1_dropShadow_1_1305"/>
<feBlend mode="normal" in="SourceGraphic" in2="effect1_dropShadow_1_1305" result="shape"/>
<feColorMatrix in="SourceAlpha" type="matrix" values="0 0 0 0 0 0 0 0 0 0 0 0 0 0 0 0 0 0 127 0" result="hardAlpha"/>
<feOffset dx="2.21582" dy="2.21582"/>
<feGaussianBlur stdDeviation="1.10791"/>
<feComposite in2="hardAlpha" operator="arithmetic" k2="-1" k3="1"/>
<feColorMatrix type="matrix" values="0 0 0 0 1 0 0 0 0 1 0 0 0 0 1 0 0 0 1 0"/>
<feBlend mode="overlay" in2="shape" result="effect2_innerShadow_1_1305"/>
</filter>
<filter id="filter5_di_1_1305" x="1459.66" y="199.979" width="180.321" height="204.39" filterUnits="userSpaceOnUse" color-interpolation-filters="sRGB">
<feFlood flood-opacity="0" result="BackgroundImageFix"/>
<feColorMatrix in="SourceAlpha" type="matrix" values="0 0 0 0 0 0 0 0 0 0 0 0 0 0 0 0 0 0 127 0" result="hardAlpha"/>
<feOffset dx="1.50975" dy="1.50975"/>
<feGaussianBlur stdDeviation="15.0975"/>
<feComposite in2="hardAlpha" operator="out"/>
<feColorMatrix type="matrix" values="0 0 0 0 0.118594 0 0 0 0 0.8625 0 0 0 0 0.505425 0 0 0 0.5 0"/>
<feBlend mode="lighten" in2="BackgroundImageFix" result="effect1_dropShadow_1_1305"/>
<feBlend mode="normal" in="SourceGraphic" in2="effect1_dropShadow_1_1305" result="shape"/>
<feColorMatrix in="SourceAlpha" type="matrix" values="0 0 0 0 0 0 0 0 0 0 0 0 0 0 0 0 0 0 127 0" result="hardAlpha"/>
<feOffset dx="1.50975" dy="1.50975"/>
<feGaussianBlur stdDeviation="0.754875"/>
<feComposite in2="hardAlpha" operator="arithmetic" k2="-1" k3="1"/>
<feColorMatrix type="matrix" values="0 0 0 0 1 0 0 0 0 1 0 0 0 0 1 0 0 0 1 0"/>
<feBlend mode="overlay" in2="shape" result="effect2_innerShadow_1_1305"/>
</filter>
<filter id="filter6_di_1_1305" x="1321.21" y="199.979" width="180.321" height="204.39" filterUnits="userSpaceOnUse" color-interpolation-filters="sRGB">
<feFlood flood-opacity="0" result="BackgroundImageFix"/>
<feColorMatrix in="SourceAlpha" type="matrix" values="0 0 0 0 0 0 0 0 0 0 0 0 0 0 0 0 0 0 127 0" result="hardAlpha"/>
<feOffset dx="1.50975" dy="1.50975"/>
<feGaussianBlur stdDeviation="15.0975"/>
<feComposite in2="hardAlpha" operator="out"/>
<feColorMatrix type="matrix" values="0 0 0 0 0.118594 0 0 0 0 0.8625 0 0 0 0 0.505425 0 0 0 0.5 0"/>
<feBlend mode="lighten" in2="BackgroundImageFix" result="effect1_dropShadow_1_1305"/>
<feBlend mode="normal" in="SourceGraphic" in2="effect1_dropShadow_1_1305" result="shape"/>
<feColorMatrix in="SourceAlpha" type="matrix" values="0 0 0 0 0 0 0 0 0 0 0 0 0 0 0 0 0 0 127 0" result="hardAlpha"/>
<feOffset dx="1.50975" dy="1.50975"/>
<feGaussianBlur stdDeviation="0.754875"/>
<feComposite in2="hardAlpha" operator="arithmetic" k2="-1" k3="1"/>
<feColorMatrix type="matrix" values="0 0 0 0 1 0 0 0 0 1 0 0 0 0 1 0 0 0 1 0"/>
<feBlend mode="overlay" in2="shape" result="effect2_innerShadow_1_1305"/>
</filter>
<filter id="filter7_di_1_1305" x="1182.88" y="199.979" width="180.321" height="204.39" filterUnits="userSpaceOnUse" color-interpolation-filters="sRGB">
<feFlood flood-opacity="0" result="BackgroundImageFix"/>
<feColorMatrix in="SourceAlpha" type="matrix" values="0 0 0 0 0 0 0 0 0 0 0 0 0 0 0 0 0 0 127 0" result="hardAlpha"/>
<feOffset dx="1.50975" dy="1.50975"/>
<feGaussianBlur stdDeviation="15.0975"/>
<feComposite in2="hardAlpha" operator="out"/>
<feColorMatrix type="matrix" values="0 0 0 0 0.118594 0 0 0 0 0.8625 0 0 0 0 0.505425 0 0 0 0.5 0"/>
<feBlend mode="lighten" in2="BackgroundImageFix" result="effect1_dropShadow_1_1305"/>
<feBlend mode="normal" in="SourceGraphic" in2="effect1_dropShadow_1_1305" result="shape"/>
<feColorMatrix in="SourceAlpha" type="matrix" values="0 0 0 0 0 0 0 0 0 0 0 0 0 0 0 0 0 0 127 0" result="hardAlpha"/>
<feOffset dx="1.50975" dy="1.50975"/>
<feGaussianBlur stdDeviation="0.754875"/>
<feComposite in2="hardAlpha" operator="arithmetic" k2="-1" k3="1"/>
<feColorMatrix type="matrix" values="0 0 0 0 1 0 0 0 0 1 0 0 0 0 1 0 0 0 1 0"/>
<feBlend mode="overlay" in2="shape" result="effect2_innerShadow_1_1305"/>
</filter>
<filter id="filter8_di_1_1305" x="1044.22" y="199.979" width="180.321" height="204.39" filterUnits="userSpaceOnUse" color-interpolation-filters="sRGB">
<feFlood flood-opacity="0" result="BackgroundImageFix"/>
<feColorMatrix in="SourceAlpha" type="matrix" values="0 0 0 0 0 0 0 0 0 0 0 0 0 0 0 0 0 0 127 0" result="hardAlpha"/>
<feOffset dx="1.50975" dy="1.50975"/>
<feGaussianBlur stdDeviation="15.0975"/>
<feComposite in2="hardAlpha" operator="out"/>
<feColorMatrix type="matrix" values="0 0 0 0 0.118594 0 0 0 0 0.8625 0 0 0 0 0.505425 0 0 0 0.5 0"/>
<feBlend mode="lighten" in2="BackgroundImageFix" result="effect1_dropShadow_1_1305"/>
<feBlend mode="normal" in="SourceGraphic" in2="effect1_dropShadow_1_1305" result="shape"/>
<feColorMatrix in="SourceAlpha" type="matrix" values="0 0 0 0 0 0 0 0 0 0 0 0 0 0 0 0 0 0 127 0" result="hardAlpha"/>
<feOffset dx="1.50975" dy="1.50975"/>
<feGaussianBlur stdDeviation="0.754875"/>
<feComposite in2="hardAlpha" operator="arithmetic" k2="-1" k3="1"/>
<feColorMatrix type="matrix" values="0 0 0 0 1 0 0 0 0 1 0 0 0 0 1 0 0 0 1 0"/>
<feBlend mode="overlay" in2="shape" result="effect2_innerShadow_1_1305"/>
</filter>
<filter id="filter9_di_1_1305" x="905.763" y="199.979" width="180.321" height="204.39" filterUnits="userSpaceOnUse" color-interpolation-filters="sRGB">
<feFlood flood-opacity="0" result="BackgroundImageFix"/>
<feColorMatrix in="SourceAlpha" type="matrix" values="0 0 0 0 0 0 0 0 0 0 0 0 0 0 0 0 0 0 127 0" result="hardAlpha"/>
<feOffset dx="1.50975" dy="1.50975"/>
<feGaussianBlur stdDeviation="15.0975"/>
<feComposite in2="hardAlpha" operator="out"/>
<feColorMatrix type="matrix" values="0 0 0 0 0.118594 0 0 0 0 0.8625 0 0 0 0 0.505425 0 0 0 0.5 0"/>
<feBlend mode="lighten" in2="BackgroundImageFix" result="effect1_dropShadow_1_1305"/>
<feBlend mode="normal" in="SourceGraphic" in2="effect1_dropShadow_1_1305" result="shape"/>
<feColorMatrix in="SourceAlpha" type="matrix" values="0 0 0 0 0 0 0 0 0 0 0 0 0 0 0 0 0 0 127 0" result="hardAlpha"/>
<feOffset dx="1.50975" dy="1.50975"/>
<feGaussianBlur stdDeviation="0.754875"/>
<feComposite in2="hardAlpha" operator="arithmetic" k2="-1" k3="1"/>
<feColorMatrix type="matrix" values="0 0 0 0 1 0 0 0 0 1 0 0 0 0 1 0 0 0 1 0"/>
<feBlend mode="overlay" in2="shape" result="effect2_innerShadow_1_1305"/>
</filter>
<filter id="filter10_di_1_1305" x="858.033" y="199.979" width="91.6586" height="204.39" filterUnits="userSpaceOnUse" color-interpolation-filters="sRGB">
<feFlood flood-opacity="0" result="BackgroundImageFix"/>
<feColorMatrix in="SourceAlpha" type="matrix" values="0 0 0 0 0 0 0 0 0 0 0 0 0 0 0 0 0 0 127 0" result="hardAlpha"/>
<feOffset dx="1.50975" dy="1.50975"/>
<feGaussianBlur stdDeviation="15.0975"/>
<feComposite in2="hardAlpha" operator="out"/>
<feColorMatrix type="matrix" values="0 0 0 0 0.118594 0 0 0 0 0.8625 0 0 0 0 0.505425 0 0 0 0.5 0"/>
<feBlend mode="lighten" in2="BackgroundImageFix" result="effect1_dropShadow_1_1305"/>
<feBlend mode="normal" in="SourceGraphic" in2="effect1_dropShadow_1_1305" result="shape"/>
<feColorMatrix in="SourceAlpha" type="matrix" values="0 0 0 0 0 0 0 0 0 0 0 0 0 0 0 0 0 0 127 0" result="hardAlpha"/>
<feOffset dx="1.50975" dy="1.50975"/>
<feGaussianBlur stdDeviation="0.754875"/>
<feComposite in2="hardAlpha" operator="arithmetic" k2="-1" k3="1"/>
<feColorMatrix type="matrix" values="0 0 0 0 1 0 0 0 0 1 0 0 0 0 1 0 0 0 1 0"/>
<feBlend mode="overlay" in2="shape" result="effect2_innerShadow_1_1305"/>
</filter>
<filter id="filter11_di_1_1305" x="714.394" y="199.979" width="180.321" height="204.39" filterUnits="userSpaceOnUse" color-interpolation-filters="sRGB">
<feFlood flood-opacity="0" result="BackgroundImageFix"/>
<feColorMatrix in="SourceAlpha" type="matrix" values="0 0 0 0 0 0 0 0 0 0 0 0 0 0 0 0 0 0 127 0" result="hardAlpha"/>
<feOffset dx="1.50975" dy="1.50975"/>
<feGaussianBlur stdDeviation="15.0975"/>
<feComposite in2="hardAlpha" operator="out"/>
<feColorMatrix type="matrix" values="0 0 0 0 0.118594 0 0 0 0 0.8625 0 0 0 0 0.505425 0 0 0 0.5 0"/>
<feBlend mode="lighten" in2="BackgroundImageFix" result="effect1_dropShadow_1_1305"/>
<feBlend mode="normal" in="SourceGraphic" in2="effect1_dropShadow_1_1305" result="shape"/>
<feColorMatrix in="SourceAlpha" type="matrix" values="0 0 0 0 0 0 0 0 0 0 0 0 0 0 0 0 0 0 127 0" result="hardAlpha"/>
<feOffset dx="1.50975" dy="1.50975"/>
<feGaussianBlur stdDeviation="0.754875"/>
<feComposite in2="hardAlpha" operator="arithmetic" k2="-1" k3="1"/>
<feColorMatrix type="matrix" values="0 0 0 0 1 0 0 0 0 1 0 0 0 0 1 0 0 0 1 0"/>
<feBlend mode="overlay" in2="shape" result="effect2_innerShadow_1_1305"/>
</filter>
<filter id="filter12_di_1_1305" x="571.56" y="199.979" width="180.321" height="204.39" filterUnits="userSpaceOnUse" color-interpolation-filters="sRGB">
<feFlood flood-opacity="0" result="BackgroundImageFix"/>
<feColorMatrix in="SourceAlpha" type="matrix" values="0 0 0 0 0 0 0 0 0 0 0 0 0 0 0 0 0 0 127 0" result="hardAlpha"/>
<feOffset dx="1.50975" dy="1.50975"/>
<feGaussianBlur stdDeviation="15.0975"/>
<feComposite in2="hardAlpha" operator="out"/>
<feColorMatrix type="matrix" values="0 0 0 0 0.118594 0 0 0 0 0.8625 0 0 0 0 0.505425 0 0 0 0.5 0"/>
<feBlend mode="lighten" in2="BackgroundImageFix" result="effect1_dropShadow_1_1305"/>
<feBlend mode="normal" in="SourceGraphic" in2="effect1_dropShadow_1_1305" result="shape"/>
<feColorMatrix in="SourceAlpha" type="matrix" values="0 0 0 0 0 0 0 0 0 0 0 0 0 0 0 0 0 0 127 0" result="hardAlpha"/>
<feOffset dx="1.50975" dy="1.50975"/>
<feGaussianBlur stdDeviation="0.754875"/>
<feComposite in2="hardAlpha" operator="arithmetic" k2="-1" k3="1"/>
<feColorMatrix type="matrix" values="0 0 0 0 1 0 0 0 0 1 0 0 0 0 1 0 0 0 1 0"/>
<feBlend mode="overlay" in2="shape" result="effect2_innerShadow_1_1305"/>
</filter>
<linearGradient id="paint0_linear_1_1305" x1="476.055" y1="298.647" x2="260.769" y2="298.647" gradientUnits="userSpaceOnUse">
<stop stop-color="#53FF8A"/>
<stop offset="0.0001" stop-color="#00DA57"/>
<stop offset="0.479167" stop-color="#00FF94"/>
<stop offset="1" stop-color="#6CFFF6"/>
</linearGradient>
<linearGradient id="paint1_linear_1_1305" x1="368.412" y1="141.29" x2="368.412" y2="460.039" gradientUnits="userSpaceOnUse">
<stop stop-color="#51FFCB"/>
<stop offset="1" stop-color="#9BFFE1"/>
</linearGradient>
<linearGradient id="paint2_linear_1_1305" x1="386.011" y1="337.71" x2="112.745" y2="337.71" gradientUnits="userSpaceOnUse">
<stop stop-color="#53FF8A"/>
<stop offset="0.0001" stop-color="#00DA57"/>
<stop offset="0.479167" stop-color="#00FF94"/>
<stop offset="1" stop-color="#6CFFF6"/>
</linearGradient>
<linearGradient id="paint3_linear_1_1305" x1="249.378" y1="219.49" x2="249.378" y2="458.961" gradientUnits="userSpaceOnUse">
<stop stop-color="#51FFCB"/>
<stop offset="1" stop-color="#9BFFE1"/>
</linearGradient>
<linearGradient id="paint4_linear_1_1305" x1="347.43" y1="342.33" x2="236.946" y2="342.33" gradientUnits="userSpaceOnUse">
<stop stop-color="#53FF8A"/>
<stop offset="0.0001" stop-color="#00DA57"/>
<stop offset="0.479167" stop-color="#00FF94"/>
<stop offset="1" stop-color="#6CFFF6"/>
</linearGradient>
<linearGradient id="paint5_linear_1_1305" x1="292.188" y1="293.745" x2="292.188" y2="392.159" gradientUnits="userSpaceOnUse">
<stop stop-color="#51FFCB"/>
<stop offset="1" stop-color="#9BFFE1"/>
</linearGradient>
<linearGradient id="paint6_linear_1_1305" x1="487.747" y1="280.508" x2="377.33" y2="280.508" gradientUnits="userSpaceOnUse">
<stop stop-color="#53FF8A"/>
<stop offset="0.0001" stop-color="#00DA57"/>
<stop offset="0.479167" stop-color="#00FF94"/>
<stop offset="1" stop-color="#6CFFF6"/>
</linearGradient>
<linearGradient id="paint7_linear_1_1305" x1="432.539" y1="231.784" x2="432.539" y2="330.482" gradientUnits="userSpaceOnUse">
<stop stop-color="#51FFCB"/>
<stop offset="1" stop-color="#9BFFE1"/>
</linearGradient>
</defs>
</svg>
