<svg width="24" height="24" viewBox="0 0 24 24" fill="none" xmlns="http://www.w3.org/2000/svg">
<g clip-path="url(#clip0_212_4094)">
<path fill-rule="evenodd" clip-rule="evenodd" d="M9.92785 7.79336C10.6208 7.79336 11.1805 7.23367 11.1805 6.54072C11.1805 5.84778 10.6208 5.28809 9.92785 5.28809H3.31818C2.9717 5.28809 2.66521 5.42135 2.43867 5.64789C2.21213 5.87443 2.06554 6.18092 2.07887 6.5274C2.07887 7.22035 2.63856 7.78004 3.33151 7.78004H9.94117L9.92785 7.79336ZM9.30143 16.322L6.31642 16.3886C5.96994 16.3886 5.66345 16.5485 5.4369 16.7751C5.21036 17.0016 5.0771 17.3214 5.09043 17.6679C5.10376 18.3608 5.67677 18.9072 6.36972 18.8939L9.35473 18.8273C10.0477 18.8139 10.594 18.2409 10.5807 17.548C10.5674 16.855 9.99438 16.3086 9.30143 16.322ZM18.5231 6.46092C19.4692 9.28602 20.2421 10.0589 23.0672 11.0051L23.0805 10.9917C24.3065 11.4048 24.3065 13.1106 23.0805 13.5237C20.2554 14.4698 19.4825 15.2427 18.5364 18.0678C18.3232 18.6808 17.8035 18.9873 17.2704 18.9873C16.7374 18.9873 16.2044 18.6808 16.0045 18.0678C15.2049 15.6691 14.5253 14.7497 12.593 13.9501C11.9001 13.6569 11.1538 13.5237 10.4076 13.5237C7.79568 13.5103 1.25264 13.5103 1.25264 13.5103C0.55969 13.5103 0 12.9507 0 12.2577C0 11.9112 0.146585 11.5914 0.373127 11.3649C0.599668 11.1383 0.906164 11.0051 1.25264 11.0051H10.3543C11.1405 11.0051 11.9001 10.7918 12.553 10.3654C13.6991 9.61916 15.3915 8.27324 15.9911 6.46092C16.4042 5.23493 18.11 5.23493 18.5231 6.46092Z" fill="#FFF29C"/>
</g>
<defs>
<clipPath id="clip0_212_4094">
<rect width="24" height="24" fill="white"/>
</clipPath>
</defs>
</svg>
