<svg width="24" height="24" viewBox="0 0 24 24" fill="none" xmlns="http://www.w3.org/2000/svg">
<path fill-rule="evenodd" clip-rule="evenodd" d="M11.762 1.88225C11.682 0.94892 12.3757 0.0689199 13.4296 0.00225329C14.2167 -0.05108 14.8438 0.30892 15.244 1.00225C15.4403 1.34312 15.6387 1.68399 15.8375 2.02563L15.8376 2.02583C16.1521 2.56612 16.4676 3.10835 16.7782 3.65559C16.8938 3.85559 17.0138 4.05262 17.1339 4.24966C17.3741 4.64373 17.6142 5.03781 17.8187 5.45559C18.4057 6.64225 17.6987 7.94892 16.3779 8.12225C15.6309 8.22892 14.8971 7.82892 14.4702 7.10892C14.1967 6.64225 13.9266 6.17225 13.6564 5.70225C13.3863 5.23225 13.1161 4.76225 12.8426 4.29559C12.716 4.07567 12.5859 3.85908 12.4559 3.6425L12.4559 3.64245L12.4558 3.64237L12.4558 3.64226C12.3257 3.42559 12.1956 3.20892 12.0689 2.98892C11.8688 2.64225 11.6953 2.28225 11.7487 1.89559L11.762 1.88225ZM15.6842 11.9223C15.7643 13.7756 14.1634 15.4423 12.2423 15.5223C10.3479 15.6023 8.61362 13.989 8.5736 12.0556C8.54692 10.189 10.0144 8.50896 12.0689 8.44229C13.9633 8.37563 15.6175 9.96229 15.6842 11.9223ZM8.74699 22.9889C9.12053 23.6289 9.65416 24.0022 10.3612 23.9889L10.3746 24.0022C11.2017 24.0289 11.8554 23.6022 12.1489 22.8955C12.429 22.2555 12.2956 21.6555 11.9754 21.0822C11.5104 20.2633 11.027 19.4444 10.5481 18.6332L10.2545 18.1355C10.1761 18.0013 10.0988 17.8671 10.0217 17.7331C9.82302 17.3881 9.62544 17.045 9.41402 16.7089C8.98712 16.0555 8.20002 15.7622 7.42625 15.9355C6.66583 16.1089 6.1322 16.6955 6.01213 17.4822C5.93209 17.9889 6.07884 18.4289 6.33231 18.8555C6.54721 19.2242 6.7621 19.5939 6.97726 19.964L6.97792 19.9652C7.56395 20.9732 8.1519 21.9846 8.74699 22.9889ZM19.6065 14.5356C18.2324 14.6156 17.3252 13.0689 17.9389 11.9489C18.3741 11.137 18.8303 10.3391 19.2873 9.53997L19.2873 9.53991L19.2873 9.53985L19.2874 9.53974C19.4607 9.23658 19.6342 8.93324 19.8066 8.62889L19.8067 8.62881L19.8067 8.62875L19.8067 8.62872C20.0335 8.21544 20.2602 7.80217 20.5003 7.40222C20.9406 6.64222 21.6877 6.29556 22.5015 6.46889C23.3152 6.64222 23.9289 7.26889 23.9956 8.12222C24.0223 8.46889 23.9289 8.86889 23.7688 9.16222C22.9284 10.6822 22.0612 12.1889 21.1807 13.6956C20.8339 14.2822 20.2869 14.5622 19.6065 14.5489V14.5356ZM0.248965 14.7756C-0.458095 16.0556 0.422394 17.5756 1.86319 17.5756L1.84985 17.5623C2.55691 17.5623 3.13057 17.2289 3.50411 16.5756C4.31789 15.1623 5.13168 13.7489 5.93212 12.3223C6.09221 12.0423 6.21228 11.7223 6.23896 11.4023C6.319 10.5623 5.81206 9.81561 5.05163 9.54894C4.21117 9.2556 3.35736 9.52227 2.86375 10.2556C2.64934 10.5822 2.45055 10.9321 2.25543 11.2756C2.19561 11.381 2.13613 11.4857 2.07665 11.5889C1.91227 11.8746 1.7479 12.1594 1.58379 12.4437C1.13519 13.2208 0.6885 13.9946 0.248965 14.7756ZM17.5252 16.6023C17.8226 16.6023 18.1215 16.5993 18.421 16.5964C19.0213 16.5904 19.6236 16.5845 20.22 16.6023C21.1805 16.6423 21.8609 17.4156 21.9009 18.4023C21.9276 19.3489 21.3006 20.0956 20.3534 20.2289C20.3155 20.2331 20.2762 20.2387 20.2365 20.2443L20.2364 20.2443C20.1503 20.2565 20.062 20.2689 19.9799 20.2689H14.8837C14.3901 20.2689 13.9365 20.1223 13.5896 19.7489C13.056 19.1756 12.9226 18.4956 13.2028 17.7756C13.4829 17.0556 14.0432 16.6289 14.8303 16.6023C15.4267 16.5845 16.029 16.5904 16.6294 16.5964C16.9288 16.5993 17.2277 16.6023 17.5252 16.6023ZM2.16993 6.01558C2.35671 6.81558 3.0104 7.38892 3.83753 7.40225V7.41558C4.21707 7.42133 5.07255 7.41717 5.98938 7.41271C7.19948 7.40682 8.51647 7.40041 8.98705 7.41558C9.73414 7.44225 10.2678 7.12225 10.668 6.52225C11.3884 5.45558 10.7214 3.93558 9.44064 3.76225C9.04042 3.70892 5.29167 3.70892 3.83753 3.76225C2.63686 3.80225 1.90312 4.84225 2.16993 6.01558Z" fill="#FFF29C"/>
</svg>
