<svg width="24" height="24" viewBox="0 0 24 24" fill="none" xmlns="http://www.w3.org/2000/svg">
<path fill-rule="evenodd" clip-rule="evenodd" d="M7.14044 8.77015C7.04719 9.78345 6.56761 10.5701 5.70169 11.1034V11.1167C3.91656 12.2367 1.42537 10.9701 1.27883 8.86348C1.09233 6.98354 2.82417 5.29026 4.75583 5.70358C6.6875 6.22356 8.819 4.99693 9.04547 2.94366C9.13872 2.22369 9.32523 1.55704 9.81814 0.983724C10.9238 -0.296237 13.0021 -0.336235 14.1477 0.91706C14.9071 1.7437 15.1735 2.70367 14.8405 3.77031C14.4941 4.86361 13.7348 5.55692 12.6024 5.82358C12.1405 5.93025 11.6997 5.8578 11.2519 5.7842L11.2518 5.78419L11.2518 5.78418C11.1959 5.77499 11.1399 5.76579 11.0837 5.75691C9.72488 5.54358 8.61917 5.98357 7.77989 7.06354C7.39356 7.57019 7.19373 8.1435 7.14044 8.77015ZM15.3201 12.25C15.2268 13.2633 14.7472 14.0499 13.8813 14.5833C12.0962 15.7032 9.60501 14.4366 9.45846 12.33C9.27196 10.4501 11.0038 8.75678 12.9355 9.1701C14.8671 9.69008 16.9986 8.46345 17.2251 6.41018C17.3184 5.69021 17.5049 5.02356 17.9978 4.45024C19.1035 3.17028 21.1817 3.13028 22.3274 4.38358C23.0867 5.21022 23.3532 6.17019 23.0201 7.23683C22.6737 8.34346 21.9144 9.03677 20.782 9.30343C20.3202 9.4101 19.8794 9.33765 19.4315 9.26405C19.3756 9.25486 19.3196 9.24565 19.2633 9.23676C17.9045 9.02344 16.7988 9.46342 15.9595 10.5434C15.5732 11.05 15.3734 11.6234 15.3201 12.25ZM23.1667 13.3833C22.0211 12.13 19.9429 12.17 18.8371 13.45C18.3442 14.0233 18.1577 14.6899 18.0645 15.4099C17.838 17.4632 15.7065 18.6898 13.7748 18.1698C11.8432 17.7565 10.1113 19.4498 10.2978 21.3297C10.4444 23.4363 12.9356 24.703 14.7207 23.583C15.5866 23.0497 16.0662 22.263 16.1595 21.2497C16.2127 20.6231 16.4126 20.0498 16.7989 19.5431C17.6382 18.4631 18.7439 18.0232 20.1027 18.2365C20.1587 18.2453 20.2146 18.2545 20.2703 18.2637L20.2709 18.2638C20.7187 18.3374 21.1595 18.4098 21.6214 18.3032C22.7538 18.0365 23.5131 17.3432 23.8595 16.2499C24.1925 15.1832 23.9261 14.2233 23.1667 13.3966V13.3833ZM6.8874 17.6765C7.15383 17.8632 7.42027 18.0098 8.36612 18.4898V18.4765C9.19208 18.8898 9.19208 20.1031 8.36612 20.5164C7.42027 20.9964 7.15383 21.1564 6.8874 21.3297C6.63428 21.4897 6.50106 21.6364 6.32788 21.8897C6.14137 22.1564 5.99483 22.423 5.51525 23.3697C5.0623 24.263 3.75676 24.1697 3.43704 23.223C3.41638 23.1679 3.39662 23.1146 3.37752 23.063C3.32268 22.915 3.27329 22.7817 3.22389 22.663C2.94413 21.9564 2.7443 21.6897 2.23807 21.3564C1.99454 21.1975 1.7426 21.0722 1.1545 20.7798C1.00266 20.7043 0.828418 20.6177 0.626127 20.5164C0.21315 20.3164 0 19.9031 0 19.5031C0 19.1031 0.21315 18.7032 0.626127 18.4898C1.57198 18.0098 1.83842 17.8499 2.10485 17.6765C2.35797 17.5165 2.49119 17.3699 2.66437 17.1165C2.85088 16.8499 2.99742 16.5832 3.477 15.6366C3.88998 14.8099 5.10227 14.8099 5.51525 15.6366C5.99483 16.5832 6.15469 16.8499 6.32788 17.1165C6.48774 17.3699 6.63428 17.5032 6.8874 17.6765Z" fill="#FFF29C"/>
</svg>
