<svg width="30" height="28" viewBox="0 0 30 28" fill="none" xmlns="http://www.w3.org/2000/svg">
<path fill-rule="evenodd" clip-rule="evenodd" d="M22.6859 26.8097C23.0745 27.1137 23.5753 27.1897 24.0218 27.003C24.4683 26.815 24.7966 26.3937 24.8955 25.883C25.9442 20.4377 28.4881 6.65503 29.4427 1.7017C29.5151 1.32836 29.3944 0.940364 29.1289 0.691031C28.8634 0.441698 28.4954 0.369698 28.1671 0.504364C23.1071 2.5737 7.52394 9.0337 1.15455 11.6377C0.750284 11.803 0.487206 12.2324 0.50048 12.703C0.514961 13.175 0.802175 13.5844 1.2161 13.7217C4.07255 14.6657 7.82201 15.979 7.82201 15.979C7.82201 15.979 9.57426 21.8257 10.4878 24.799C10.6024 25.1724 10.8667 25.4657 11.2155 25.567C11.563 25.667 11.9347 25.5617 12.1942 25.291C13.6616 23.7604 15.9304 21.3937 15.9304 21.3937C15.9304 21.3937 20.241 24.8857 22.6859 26.8097ZM9.39927 15.2404L11.4255 22.6244L11.8756 17.9484C11.8756 17.9484 19.704 10.147 24.1666 5.70036C24.297 5.5697 24.3151 5.35103 24.2065 5.1977C24.0991 5.04436 23.9011 5.00836 23.7527 5.11236C18.5805 8.7617 9.39927 15.2404 9.39927 15.2404Z" fill="url(#paint0_linear_612_2821)"/>
<defs>
<linearGradient id="paint0_linear_612_2821" x1="10.5" y1="7.50018" x2="25.1986" y2="27.2248" gradientUnits="userSpaceOnUse">
<stop stop-color="#008080"/>
<stop offset="1" stop-color="#008080" stop-opacity="0.5"/>
</linearGradient>
</defs>
</svg>
